<svg xmlns="http://www.w3.org/2000/svg" width="32.663" height="36.214" viewBox="0 0 32.663 36.214">
  <g id="그룹_109" data-name="그룹 109" transform="translate(-242.372 -488.7)">
    <path id="패스_217" data-name="패스 217" d="M257.557,488.7a14.264,14.264,0,0,1,13.435,8.634,7.605,7.605,0,0,1,.559,1.912.682.682,0,0,1-.64.739c-.529.055-.51-.2-.7-.394a1.555,1.555,0,0,1-.226-.617c-1.629-5.284-8.014-9.927-15.183-8.44a9.974,9.974,0,0,0-7.036,5.35c-2.7,5.082-2.827,10.222.187,15.289a3.072,3.072,0,0,1,.521,1.615,2.025,2.025,0,0,1-.836,1.183c-.525.411-1,.009-1.347-.38a16.136,16.136,0,0,1-3.612-7.313C240.85,498.517,247.316,488.521,257.557,488.7Z" transform="translate(0 0)" fill="#fff" fill-rule="evenodd"/>
    <path id="패스_218" data-name="패스 218" d="M263.983,496.363c.4-.238.895.231,1.347.452a8.374,8.374,0,0,1,3.442,3.432c.891,1.454,1.781,2.915,2.561,4.429,3.056,5.931,6.06,11.889,9.105,17.825a4.4,4.4,0,0,1,.355,3.475c-.173.374-.543.971-.917,1.047a1.556,1.556,0,0,1-1.219-.645,21.773,21.773,0,0,1-1.39-2.532q-5.711-11.071-11.406-22.15c-.642-1.253-1.186-2.555-1.733-3.853C263.968,497.462,263.588,496.6,263.983,496.363Z" transform="translate(-5.979 -2.119)" fill="#fff" fill-rule="evenodd"/>
    <path id="패스_219" data-name="패스 219" d="M246.035,529.32c-.261-.233-.137-.6-.016-.831q5.461-10.478,10.971-20.931c.159-.3.548-.947.882-.853s.468.637.622.955a3.347,3.347,0,0,1-.132,3.192c-1.2,2.307-3.143,5.979-4.359,8.278-.821,1.552.206,2.718,3.14,2.9a13.916,13.916,0,0,0,7.148-1.343,5.623,5.623,0,0,1,1.455-.516.825.825,0,0,1,.7.371.833.833,0,0,1-.171.78,10.115,10.115,0,0,1-1.9,1.133,14.551,14.551,0,0,1-9.8.731c-1.991-.531-2.439-.33-2.85.516-.616,1.269-1.785,3.223-2.472,4.456s-1.074,1.591-2.191,1.418C246.75,529.525,246.3,529.554,246.035,529.32Z" transform="translate(-0.979 -5.019)" fill="#fff" fill-rule="evenodd"/>
  </g>
</svg>
