<?xml version="1.0" encoding="utf-8"?>
<!-- Generator: Adobe Illustrator 16.0.0, SVG Export Plug-In . SVG Version: 6.00 Build 0)  -->
<!DOCTYPE svg PUBLIC "-//W3C//DTD SVG 1.1//EN" "http://www.w3.org/Graphics/SVG/1.1/DTD/svg11.dtd">
<svg version="1.1" id="Layer_1" xmlns="http://www.w3.org/2000/svg" xmlns:xlink="http://www.w3.org/1999/xlink" x="0px" y="0px"
	 width="32.664px" height="36.214px" viewBox="0 0 32.664 36.214" enable-background="new 0 0 32.664 36.214" xml:space="preserve">
<g>
	<path fill="#FFFFFF" d="M20.951,33.402v-9.088c0-0.932-0.754-1.551-1.686-1.551H7.34c-0.452,0-0.884-0.182-1.201-0.504
		l-5.655-5.745C0.173,16.199,0,15.774,0,15.332V9.407c0-0.444,0.175-0.869,0.486-1.184l5.653-5.722C6.456,2.181,6.888,2,7.338,2
		H8.69c0.93,0,1.685,0.755,1.685,1.685v8.161c0,0.932,0.755,1.82,1.685,1.82h12.808c0.461,0,0.902,0.189,1.219,0.524l5.449,5.728
		C31.833,20.232,32,20.646,32,21.08v6.604c0,0.441-0.172,0.867-0.484,1.182l-5.629,5.721c-0.316,0.32-0.75,0.502-1.201,0.502h-2.049
		C21.705,35.087,20.951,34.333,20.951,33.402z"/>
	<path fill="#FFFFFF" d="M1.685,25.003h7.654c0.93,0,1.685,0.754,1.685,1.684v0.635c0,0.93,0.754,1.684,1.685,1.684h5.886
		c0.93,0,1.684,0.756,1.684,1.686v2.711c0,0.932-0.754,1.686-1.684,1.686H6.354c-0.501,0-0.977-0.223-1.297-0.609l-4.669-5.637
		C0.138,28.539,0,28.158,0,27.765v-1.078C0,25.757,0.755,25.003,1.685,25.003z"/>
	<path fill="#FFFFFF" d="M11.046,6.371V3.685c0-0.93,0.755-1.685,1.685-1.685H24.73c0.408,0,0.805,0.15,1.113,0.421l5.586,4.93
		C31.792,7.671,32,8.13,32,8.614v1.127c0,0.93-0.754,1.685-1.686,1.685h-7.678c-0.932,0-1.686-0.755-1.686-1.685l0,0
		c0-0.93-0.754-1.685-1.686-1.685h-6.534C11.801,8.056,11.046,7.301,11.046,6.371z"/>
</g>
</svg>
