<svg xmlns="http://www.w3.org/2000/svg" width="50.996" height="48" viewBox="0 0 50.996 48">
  <g id="그룹_57" data-name="그룹 57" transform="translate(-1006.276 -489.923)">
    <path id="패스_176" data-name="패스 176" d="M1056.272,501.549h-49a1,1,0,0,1-1-1v-9.626a1,1,0,0,1,1-1h49a1,1,0,0,1,1,1v9.626A1,1,0,0,1,1056.272,501.549Zm-48-2h47v-7.626h-47Z" fill="#fff"/>
    <path id="패스_177" data-name="패스 177" d="M1056.272,537.923h-49a1,1,0,0,1-1-1V500.549a1,1,0,0,1,1-1h49a1,1,0,0,1,1,1v36.374A1,1,0,0,1,1056.272,537.923Zm-48-2h47V501.549h-47Z" fill="#fff"/>
    <path id="패스_178" data-name="패스 178" d="M1011.173,498.2a1,1,0,0,1-.707-1.707l2.921-2.919a1,1,0,1,1,1.414,1.415l-2.921,2.919A1,1,0,0,1,1011.173,498.2Z" fill="#fff"/>
    <path id="패스_179" data-name="패스 179" d="M1014.094,498.2a1,1,0,0,1-.707-.292l-2.921-2.919a1,1,0,1,1,1.414-1.415l2.921,2.919a1,1,0,0,1-.707,1.707Z" fill="#fff"/>
    <path id="패스_180" data-name="패스 180" d="M1021.311,496.736h-4.128a1,1,0,0,1,0-2h4.128a1,1,0,0,1,0,2Z" fill="#fff"/>
    <path id="패스_181" data-name="패스 181" d="M1030.278,517.366h-10.422a1,1,0,0,1-1-1V506.215a1,1,0,0,1,1-1h10.422a1,1,0,0,1,1,1v10.151A1,1,0,0,1,1030.278,517.366Zm-9.422-2h8.422v-8.151h-8.422Z" fill="#fff"/>
    <path id="패스_182" data-name="패스 182" d="M1043.69,517.366h-8.252a1,1,0,0,1,0-2h8.252a1,1,0,0,1,0,2Zm0-5.076h-8.252a1,1,0,1,1,0-2h8.252a1,1,0,1,1,0,2Zm0-5.075h-8.252a1,1,0,0,1,0-2h8.252a1,1,0,0,1,0,2Z" fill="#fff"/>
    <path id="패스_183" data-name="패스 183" d="M1043.69,532.592h-23.834a1,1,0,0,1,0-2h23.834a1,1,0,0,1,0,2Zm0-5.076h-23.834a1,1,0,0,1,0-2h23.834a1,1,0,0,1,0,2Zm0-5.076h-23.834a1,1,0,0,1,0-2h23.834a1,1,0,0,1,0,2Z" fill="#fff"/>
  </g>
</svg>
