<svg xmlns="http://www.w3.org/2000/svg" width="49.388" height="53.008" viewBox="0 0 49.388 53.008">
  <g id="그룹_99" data-name="그룹 99" transform="translate(-1296.794 -473.694)">
    <path id="패스_144" data-name="패스 144" d="M1345.293,489.23a3.264,3.264,0,0,0-2.351-.971,3.767,3.767,0,0,0-1.963.567,2.962,2.962,0,0,0-3.455.082c-.136.107-1.127.851-1.129.852-.2.16-.43.331-.684.523l-.08.06c-.191.157-.394.315-.651.513,0,0-1.926,1.521-2.644,2.091l-.859-2.577a2.252,2.252,0,0,0-2.136-1.54h-4.179v-4.5H1328a7.685,7.685,0,0,0,7.677-7.676V475.2l-5.426.776a7.747,7.747,0,0,0-5.491,3.67,7.715,7.715,0,0,0-6.19-5.172l-5.426-.775v1.452a7.685,7.685,0,0,0,7.675,7.677h2.84v6.007h-4.175a2.252,2.252,0,0,0-2.138,1.54l-.9,2.694a12.951,12.951,0,0,0-2.2-.2,10.165,10.165,0,0,0-2.8.38,9.107,9.107,0,0,0-4.183,2.323c-.181.179-.346.351-.536.548-.211.219-.441.459-.738.756-1.2,1.2-5.968,3.622-6.17,3.725a.669.669,0,1,0,.6,1.2c.523-.264,5.166-2.625,6.516-3.973.3-.3.54-.552.79-.813.164-.169.315-.327.47-.481a7.867,7.867,0,0,1,3.616-1.991,8.9,8.9,0,0,1,2.435-.329,14.764,14.764,0,0,1,3.816.593c.366.1.692.2,1.057.324a14.385,14.385,0,0,0,3.936.8c2.521.2,3.863.216,4.922.216h.822a6.061,6.061,0,0,1,1.189.084l.187.039a1.67,1.67,0,0,1,.47.171,1.633,1.633,0,0,1,.657.736,1.545,1.545,0,0,1,.049.876,2.165,2.165,0,0,1-1.388,1.52,2.849,2.849,0,0,1-.972.159c-.324.011-2.049.065-4.13.065q-.774.011-1.513.01a56.538,56.538,0,0,1-6.147-.255.667.667,0,0,0-.523,1.081.653.653,0,0,0,.443.252,58.753,58.753,0,0,0,6.31.26c.62,0,1.126-.005,1.437-.009,2.265,0,4.085-.063,4.158-.065a4.193,4.193,0,0,0,1.4-.242,3.475,3.475,0,0,0,2.236-2.525,2.848,2.848,0,0,0,.02-1.11l8.817-7.112a2.388,2.388,0,0,1,1.4-.482,2.016,2.016,0,0,1,1.436.583,1.747,1.747,0,0,1,.5,1.234,2.2,2.2,0,0,1-.69,1.56c-5.559,6.65-16.283,13.068-16.387,13.13a7.194,7.194,0,0,1-3.419.86q-.309,0-.621-.026c-1.547-.137-3.682-.5-5.775-.858-1.35-.23-2.626-.447-3.841-.614-.165-.015-.336-.03-.52-.03a4.842,4.842,0,0,0-2.373.626l-6.326,3.637a.67.67,0,0,0,.667,1.162l6.321-3.635a3.576,3.576,0,0,1,1.752-.443c.125,0,.248.006.388.018,1.112.158,2.384.373,3.773.611,2.077.353,4.226.719,5.817.86.246.022.494.033.74.033a8.578,8.578,0,0,0,4.077-1.036c.449-.266,11.024-6.592,16.732-13.411a3.464,3.464,0,0,0,1.023-2.454A3.1,3.1,0,0,0,1345.293,489.23Zm-14.826-11.771,3.7-.529a6.159,6.159,0,0,1-6.167,5.892h-1.866a13.19,13.19,0,0,1,3.688-2.264,1.042,1.042,0,0,0,.4-.761.684.684,0,0,0-.73-.652h-.012a.912.912,0,0,0-.264.046,14.634,14.634,0,0,0-3.618,2.109A6.139,6.139,0,0,1,1330.467,477.459Zm-11.416,1.614a15.634,15.634,0,0,1,3.843,2.247h-2.072a6.159,6.159,0,0,1-6.165-5.892l3.705.53a6.141,6.141,0,0,1,4.839,3.784,11.51,11.51,0,0,0-3.605-2.058.764.764,0,0,0-.243-.039.755.755,0,0,0-.3,1.428Zm10.963,15.8a8.1,8.1,0,0,0-1.211-.072l-.845,0c-1.028,0-2.329-.016-4.8-.212a13.131,13.131,0,0,1-3.625-.743c-.355-.117-.722-.238-1.125-.345-.159-.042-.319-.083-.482-.124l.845-2.534a.748.748,0,0,1,.712-.513h9.854a.755.755,0,0,1,.713.514l1.032,3.1Zm2.09,1.067a3.37,3.37,0,0,0-.654-.577c1.116-.893,2.3-1.83,3.462-2.744l.934-.743c.22-.169.439-.336.624-.491l.089-.067c.231-.174.462-.346.66-.5,0,0,1-.752,1.108-.836a1.651,1.651,0,0,1,.984-.337,1.623,1.623,0,0,1,.5.082Z" fill="#fd9c19"/>
    <g id="그룹_58" data-name="그룹 58">
      <path id="패스_3491" data-name="패스 3491" d="M1303.917,518.711c-.607-.2-1.034-.356-1.571-.55l-.96-.346c-.842-.3-.911-.557-.911-.79,0-.859.852-1.04,1.569-1.04a9.518,9.518,0,0,1,3.284.884h0a.459.459,0,0,0,.593-.264l.01-.025.6-2.019a.436.436,0,0,0-.251-.526h0a11.049,11.049,0,0,0-4.239-1c-3.27,0-5.22,1.487-5.22,3.978,0,2.2,1.226,3.062,3.061,3.677l.172.058c1.119.383,1.538.525,2.441.865l.053.021c.608.238.894.395.905.837a1.146,1.146,0,0,1-.316.863,1.908,1.908,0,0,1-1.384.4,7.16,7.16,0,0,1-2.914-.869c-.177-.079-.361-.163-.552-.247h0a.46.46,0,0,0-.609.229l0,0v0l-.853,2.052a.437.437,0,0,0,.221.561h0a10.909,10.909,0,0,0,4.7,1.235c4.712,0,5.414-2.664,5.414-4.253C1307.157,520.1,1305.6,519.267,1303.917,518.711Z" fill="#fd9c19"/>
      <path id="패스_3491-2" data-name="패스 3491-2" d="M1341.978,518.711c-.607-.2-1.034-.356-1.571-.55-.277-.1-.586-.21-.96-.346-.841-.3-.911-.557-.911-.79,0-.859.854-1.04,1.569-1.04a9.528,9.528,0,0,1,3.285.884h0a.458.458,0,0,0,.592-.264.128.128,0,0,0,.009-.025l.6-2.019a.438.438,0,0,0-.25-.526h0a11.05,11.05,0,0,0-4.24-1c-3.268,0-5.218,1.487-5.218,3.978,0,2.2,1.223,3.062,3.058,3.677l.173.058c1.119.383,1.537.525,2.442.865l.051.021c.609.238.9.395.906.837a1.142,1.142,0,0,1-.317.863,1.906,1.906,0,0,1-1.384.4,7.165,7.165,0,0,1-2.914-.869c-.175-.079-.359-.163-.552-.247h0a.461.461,0,0,0-.609.229v0l0,0-.851,2.052a.438.438,0,0,0,.219.561h0a10.917,10.917,0,0,0,4.7,1.235c4.711,0,5.414-2.664,5.414-4.253C1345.22,520.1,1343.66,519.267,1341.978,518.711Z" fill="#fd9c19"/>
      <path id="패스_3492" data-name="패스 3492" d="M1315.213,515.984a6.562,6.562,0,0,1,3.011.763h0a.46.46,0,0,0,.617-.205.486.486,0,0,0,.025-.062l.622-2a.438.438,0,0,0-.237-.527h0a7.979,7.979,0,0,0-4.092-.922c-4.374,0-6.783,2.466-6.783,6.944,0,4.27,2.473,6.72,6.783,6.72a8.081,8.081,0,0,0,4.086-.922h0a.439.439,0,0,0,.211-.505l-.588-2a.46.46,0,0,0-.576-.3.529.529,0,0,0-.08.035h0a7.048,7.048,0,0,1-3.053.737c-1.943,0-3.152-1.442-3.152-3.765C1312.008,518.483,1312.426,515.984,1315.213,515.984Z" fill="#fd9c19"/>
      <path id="패스_3493" data-name="패스 3493" d="M1325.41,513.583l-4.478,12.261a.444.444,0,0,0,.275.567.458.458,0,0,0,.155.024h2.649a.454.454,0,0,0,.43-.3l.7-2a.454.454,0,0,1,.431-.3h3.5a.455.455,0,0,1,.436.3l.681,2a.459.459,0,0,0,.435.3h2.631a.446.446,0,0,0,.456-.435.525.525,0,0,0-.023-.153l-4.357-12.261a.458.458,0,0,0-.432-.3h-3.061A.458.458,0,0,0,1325.41,513.583Zm2.489,7.586h-1.189a.443.443,0,0,1-.453-.435h0a.412.412,0,0,1,.019-.14l.593-1.828a.46.46,0,0,1,.868,0l.6,1.828a.443.443,0,0,1-.293.555h0a.421.421,0,0,1-.142.019Z" fill="#fd9c19"/>
    </g>
  </g>
</svg>
