<svg xmlns="http://www.w3.org/2000/svg" width="45.126" height="35.5" viewBox="0 0 45.126 35.5">
  <g id="그룹_56" data-name="그룹 56" transform="translate(-1157.819 -477.487)">
    <path id="패스_145" data-name="패스 145" d="M1196.967,512.987H1163.8a5.984,5.984,0,0,1-5.978-5.977V489.69a5.985,5.985,0,0,1,5.978-5.978h6.947v-1.985a4.245,4.245,0,0,1,4.24-4.24h10.8a4.245,4.245,0,0,1,4.24,4.24v1.985h6.947a5.984,5.984,0,0,1,5.978,5.978v17.32A5.984,5.984,0,0,1,1196.967,512.987Zm-33.17-27.775a4.483,4.483,0,0,0-4.478,4.478v17.32a4.482,4.482,0,0,0,4.478,4.477h33.17a4.482,4.482,0,0,0,4.478-4.477V489.69a4.483,4.483,0,0,0-4.478-4.478h-7.7a.75.75,0,0,1-.75-.75v-2.735a2.743,2.743,0,0,0-2.74-2.74h-10.8a2.744,2.744,0,0,0-2.74,2.74v2.735a.75.75,0,0,1-.75.75Z" fill="#fff"/>
    <path id="패스_146" data-name="패스 146" d="M1180.382,507.085a9.162,9.162,0,1,1,9.162-9.162A9.172,9.172,0,0,1,1180.382,507.085Zm0-16.825a7.662,7.662,0,1,0,7.662,7.663A7.671,7.671,0,0,0,1180.382,490.26Z" fill="#fff"/>
    <line id="선_23" data-name="선 23" x2="1.946" transform="translate(1193.983 490.663)" fill="#fff"/>
    <path id="패스_147" data-name="패스 147" d="M1195.93,491.413h-1.947a.75.75,0,0,1,0-1.5h1.947a.75.75,0,0,1,0,1.5Z" fill="#fff"/>
  </g>
</svg>
