<svg xmlns="http://www.w3.org/2000/svg" width="52.887" height="60.007" viewBox="0 0 52.887 60.007">
  <g id="그룹_53" data-name="그룹 53" transform="translate(-543.892 -483.294)">
    <path id="패스_159" data-name="패스 159" d="M576.413,533.131H562.6l-.168-1.434a20.688,20.688,0,0,0-3.868-9.409,17.822,17.822,0,1,1,23.057.378,16.326,16.326,0,0,0-1.893,3.21l-2.951-1.339a19.513,19.513,0,0,1,2.407-4.017l.257-.257a14.584,14.584,0,1,0-18.652-.335l.184.186a22.834,22.834,0,0,1,4.435,9.778h11Z" fill="#fff"/>
    <rect id="사각형_44" data-name="사각형 44" width="3.957" height="3.24" transform="translate(543.892 506.516)" fill="#fff"/>
    <rect id="사각형_45" data-name="사각형 45" width="3.24" height="3.954" transform="translate(569.021 483.294)" fill="#fff"/>
    <rect id="사각형_46" data-name="사각형 46" width="3.24" height="3.955" transform="matrix(0.707, -0.707, 0.707, 0.707, 550.915, 491.751)" fill="#fff"/>
    <rect id="사각형_47" data-name="사각형 47" width="3.959" height="3.24" transform="translate(592.819 506.516)" fill="#fff"/>
    <rect id="사각형_48" data-name="사각형 48" width="3.956" height="3.241" transform="matrix(0.707, -0.707, 0.707, 0.707, 584.663, 492.256)" fill="#fff"/>
    <rect id="사각형_49" data-name="사각형 49" width="14.66" height="3.24" transform="translate(562.761 535.177)" fill="#fff"/>
    <rect id="사각형_50" data-name="사각형 50" width="8.402" height="3.24" transform="translate(565.694 540.062)" fill="#fff"/>
  </g>
</svg>
