<svg xmlns="http://www.w3.org/2000/svg" width="55.014" height="52.995" viewBox="0 0 55.014 52.995">
  <g id="그룹_56" data-name="그룹 56" transform="translate(-696.296 -486.801)">
    <path id="패스_174" data-name="패스 174" d="M723.672,538.25V496.532H699.186V538.25H696.3V493.643H726.56V538.25Z" fill="#fff"/>
    <path id="패스_175" data-name="패스 175" d="M748.419,538.238V517.714H732.365v20.524h-2.888V514.825H751.31v23.413Z" fill="#fff"/>
    <rect id="사각형_56" data-name="사각형 56" width="5.658" height="2.89" transform="translate(703.603 502.001)" fill="#fff"/>
    <rect id="사각형_57" data-name="사각형 57" width="5.737" height="2.89" transform="translate(714.094 502.001)" fill="#fff"/>
    <rect id="사각형_58" data-name="사각형 58" width="5.657" height="2.889" transform="translate(714.172 510.217)" fill="#fff"/>
    <rect id="사각형_59" data-name="사각형 59" width="5.738" height="2.889" transform="translate(703.603 510.215)" fill="#fff"/>
    <rect id="사각형_60" data-name="사각형 60" width="5.657" height="2.89" transform="translate(714.172 517.61)" fill="#fff"/>
    <rect id="사각형_61" data-name="사각형 61" width="5.738" height="2.89" transform="translate(703.603 517.609)" fill="#fff"/>
    <rect id="사각형_62" data-name="사각형 62" width="5.658" height="2.889" transform="translate(703.603 525.826)" fill="#fff"/>
    <rect id="사각형_63" data-name="사각형 63" width="5.737" height="2.89" transform="translate(714.094 525.824)" fill="#fff"/>
    <rect id="사각형_64" data-name="사각형 64" width="3.683" height="2.89" transform="translate(742.151 520.311)" fill="#fff"/>
    <rect id="사각형_65" data-name="사각형 65" width="3.739" height="2.889" transform="translate(735.141 520.31)" fill="#fff"/>
    <rect id="사각형_66" data-name="사각형 66" width="3.683" height="2.889" transform="translate(742.151 525.765)" fill="#fff"/>
    <rect id="사각형_67" data-name="사각형 67" width="3.739" height="2.889" transform="translate(735.141 525.764)" fill="#fff"/>
    <rect id="사각형_68" data-name="사각형 68" width="3.684" height="2.89" transform="translate(735.143 531.823)" fill="#fff"/>
    <rect id="사각형_69" data-name="사각형 69" width="3.735" height="2.89" transform="translate(742.098 531.823)" fill="#fff"/>
    <rect id="사각형_70" data-name="사각형 70" width="35.258" height="2.889" transform="translate(705.035 536.906)" fill="#fff"/>
    <rect id="사각형_71" data-name="사각형 71" width="2.89" height="7.82" transform="translate(709.983 486.801)" fill="#fff"/>
  </g>
</svg>
