<?xml version="1.0" encoding="utf-8"?>
<!-- Generator: Adobe Illustrator 16.0.0, SVG Export Plug-In . SVG Version: 6.00 Build 0)  -->
<!DOCTYPE svg PUBLIC "-//W3C//DTD SVG 1.1//EN" "http://www.w3.org/Graphics/SVG/1.1/DTD/svg11.dtd">
<svg version="1.1" id="Layer_1" xmlns="http://www.w3.org/2000/svg" xmlns:xlink="http://www.w3.org/1999/xlink" x="0px" y="0px"
	 width="80px" height="60px" viewBox="0 0 80 60" enable-background="new 0 0 80 60" xml:space="preserve">
<g>
	<path fill="#FFFFFF" d="M21.907,52.232c-2.604-0.128-4.717-0.77-6.278-2.616c-0.961-1.139-1.52-2.5-1.686-3.978
		c-0.303-2.703,1.852-4.602,4.696-4.167c1.563,0.237,2.804,0.949,3.39,2.503c0.183,0.486,0.222,1.027,0.361,1.533
		c0.115,0.409,0.244,0.819,0.434,1.195c0.318,0.63,0.85,0.962,1.573,0.942c0.733-0.021,1.312-0.336,1.606-1.008
		c0.59-1.341,0.401-2.613-0.472-3.777c-1.156-1.54-2.784-2.137-4.629-2.341c-1.066-0.114-2.128-0.285-3.176-0.513
		c-2.667-0.579-3.929-3.518-2.631-6.061c0.394-0.773,0.936-1.425,1.635-1.932c2.818-2.044,6.881-2.425,9.91,0.155
		c1.459,1.242,2.429,2.772,2.333,4.795c-0.039,0.805-0.361,1.495-0.917,2.065c-0.755,0.771-1.701,0.787-2.665,0.567
		c-1.086-0.243-1.987-0.873-2.924-1.45c-0.872-0.536-1.781-1.054-2.735-1.412c-0.62-0.229-1.353-0.211-2.032-0.196
		c-0.489,0.01-0.965,0.216-1.131,0.767c-0.132,0.44,0.11,0.917,0.652,1.261c0.967,0.614,2.067,0.805,3.179,0.923
		c1.248,0.131,2.508,0.163,3.703,0.622c1.768,0.679,3.221,1.727,3.98,3.522c1.259,2.979,0.013,7.233-4.283,8.302
		C23.098,52.106,22.366,52.162,21.907,52.232z"/>
	<path fill="#FFFFFF" d="M1,18.004c0.072-3.007,0.316-5.397,1.489-7.584c0.875-1.635,2.088-2.888,3.966-3.335
		c3.175-0.756,5.899,1.772,5.37,4.991c-0.417,2.524-1.783,4.492-3.713,6.087c-1.139,0.942-2.094,1.985-2.431,3.462
		c-0.357,1.559-0.117,3.002,0.878,4.306c1.066,1.396,3.354,1.364,4.372,0.23c0.522-0.582,0.948-1.254,1.391-1.906
		c0.523-0.768,0.977-1.589,1.539-2.328c0.814-1.073,1.95-1.636,3.279-1.762c2.539-0.242,3.899,1.733,3.742,3.791
		c-0.108,1.412-0.793,2.533-1.98,3.327c-1.356,0.905-2.848,1.426-4.47,1.616c-2.111,0.244-4.21,0.22-6.271-0.328
		c-3.799-1.013-5.986-3.557-6.754-7.345C1.154,19.982,1.085,18.7,1,18.004z"/>
	<path fill="#FFFFFF" d="M39.282,32.073c-0.121-0.264-0.238-0.527-0.365-0.788c-1.024-2.101-1.12-4.213-0.012-6.304
		c0.53-0.997,1.288-1.807,2.49-1.937c1.989-0.214,3.474,1.445,3.1,3.439c-0.195,1.037-0.658,1.936-1.389,2.72
		c-0.551,0.589-1.04,1.242-1.483,1.914c-0.231,0.351-0.411,0.804-0.017,1.27c0.337-0.284,0.648-0.564,0.976-0.823
		c1.352-1.07,2.812-1.861,4.614-1.706c0.979,0.083,1.796,0.489,2.391,1.28c0.861,1.146,0.597,2.505-0.646,3.222
		c-1.17,0.675-2.403,0.793-3.684,0.302c-0.472-0.181-0.947-0.404-1.438-0.466c-1.938-0.237-3.429,1.113-3.729,3.313
		c-0.175,1.28,0.652,2.464,1.921,2.679c1.08,0.184,2.005-0.081,2.646-1.06c0.509-0.78,1.184-1.383,2.059-1.739
		c1.088-0.441,2.146-0.266,2.806,0.468c0.772,0.858,0.922,2.019,0.381,3.051c-0.408,0.79-1.021,1.409-1.723,1.94
		c-1.329,1.004-2.837,1.579-4.497,1.65c-2.772,0.113-5.046-1.783-5.463-3.781c-0.22-1.054-0.067-2.066,0.351-3.03
		c0.306-0.701,0.7-1.363,0.993-1.925c-0.654,0.166-1.418,0.434-2.204,0.537c-1.044,0.137-1.973-0.471-2.34-1.38
		c-0.352-0.866-0.096-1.886,0.643-2.473c0.804-0.635,1.706-0.813,2.691-0.52c0.265,0.079,0.527,0.176,0.791,0.266
		C39.19,32.15,39.238,32.11,39.282,32.073z"/>
	<path fill="#FFFFFF" d="M43.609,9.651c1.986,0.054,3.301,0.891,4.284,2.311c0.2,0.285,0.338,0.729,0.823,0.411
		c0.312-0.206,0.298-0.594-0.042-1.013c-0.75-0.912-1.028-1.958-0.935-3.119c0.067-0.813,0.459-1.431,1.183-1.79
		c0.971-0.483,1.943-0.373,2.835,0.202c0.867,0.558,1.138,1.443,1.1,2.426c-0.034,0.894-0.39,1.683-0.865,2.432
		c-0.493,0.787-1.028,1.56-1.184,2.511c-0.207,1.273-0.069,2.414,1.09,3.249c0.583,0.419,0.987,1.005,1.176,1.725
		c0.276,1.063-0.065,2.095-0.917,2.694c-0.791,0.554-2.237,0.58-2.991,0c-0.24-0.185-0.408-0.491-0.543-0.775
		c-0.1-0.211-0.102-0.473-0.127-0.713c-0.042-0.464-0.118-0.91-0.658-1.041c-0.502-0.12-0.792,0.208-1.049,0.563
		c-0.145,0.196-0.286,0.395-0.411,0.603c-1.356,2.28-5.472,2.557-7.102-0.273c-1.399-2.43-1.158-6.165,0.61-8.452
		c0.667-0.861,1.515-1.461,2.568-1.744C42.9,9.734,43.369,9.693,43.609,9.651z M42.619,15.209c0.085,0.38,0.128,0.768,0.266,1.117
		c0.067,0.172,0.306,0.374,0.474,0.38c0.163,0.008,0.414-0.18,0.491-0.346c0.35-0.754,0.348-1.536-0.01-2.288
		c-0.07-0.152-0.301-0.335-0.443-0.322c-0.178,0.014-0.428,0.175-0.496,0.338C42.758,14.436,42.71,14.82,42.619,15.209z"/>
	<path fill="#FFFFFF" d="M69.175,51.468c0.428-0.291,0.831-0.64,1.293-0.861c0.849-0.403,1.831-0.123,2.404,0.602
		c0.566,0.72,0.573,1.848,0.016,2.611c-0.509,0.694-1.616,1.06-2.395,0.675c-0.432-0.214-0.791-0.612-1.136-0.97
		c-0.474-0.5-0.637-0.539-1.173-0.139c-2.494,1.871-5.987,1.75-8.248-0.456c-2.369-2.305-3.169-5.171-2.433-8.403
		c0.141-0.614,0.455-1.227,0.825-1.739c1.372-1.898,4.046-1.631,4.973,0.509c0.799,1.838,0.753,3.704-0.124,5.525
		c-0.294,0.607-0.584,1.203-0.411,1.91c0.225,0.906,1.056,1.419,2.116,1.294c0.909-0.107,1.537-0.764,1.479-1.685
		c-0.03-0.511-0.188-1.035-0.388-1.512c-0.716-1.736-1.112-3.517-0.812-5.393c0.205-1.274,0.683-2.393,2.038-2.854
		c1.638-0.556,3.087,0.163,3.614,1.812c0.441,1.389,0.336,2.805,0.071,4.207c-0.29,1.544-0.839,3.001-1.618,4.369
		c-0.08,0.144-0.138,0.307-0.207,0.458C69.099,51.442,69.137,51.456,69.175,51.468z"/>
	<path fill="#FFFFFF" d="M56.881,50.602c-0.087,2.984-1.324,5.137-3.87,6.422c-2.774,1.399-6.09,0.483-7.993-2.111
		c-2.223-3.024-1.604-7.454,1.352-9.689c3.839-2.899,9.271-0.825,10.321,3.952C56.804,49.687,56.829,50.217,56.881,50.602z
		 M50.837,50.719c0,1.445-0.245,2.615-0.551,2.615c-0.305,0-0.55-1.17-0.55-2.615c0-1.442,0.245-2.611,0.55-2.611
		C50.592,48.107,50.837,49.278,50.837,50.719z"/>
	<path fill="#FFFFFF" d="M79,34.89c-0.113,4.028-0.366,7.38-1.619,10.559c-0.311,0.781-0.742,1.533-1.221,2.227
		c-0.493,0.711-0.861,0.709-1.494,0.126c-1.072-0.99-1.685-2.272-2.189-3.606c-0.778-2.063-1.149-4.22-1.339-6.404
		c-0.177-2.102-0.232-4.208,0.102-6.306c0.207-1.29,0.513-2.548,1.289-3.631c0.676-0.942,1.545-1.54,2.778-1.411
		c0.597,0.063,1.063,0.369,1.476,0.775c1.096,1.075,1.563,2.462,1.8,3.913C78.813,32.587,78.912,34.063,79,34.89z"/>
	<path fill="#FFFFFF" d="M26.666,11.502c-0.039,2.177-0.805,4.042-2.477,5.464c-2.42,2.062-5.815,1.92-8.12-0.291
		c-2.774-2.666-2.878-7.386-0.221-10.168c2.85-2.982,7.432-2.529,9.652,0.964C26.279,8.698,26.69,10.039,26.666,11.502z
		 M20.846,11.435c0,1.442-0.246,2.613-0.551,2.613c-0.304,0-0.551-1.17-0.551-2.613c0-1.442,0.248-2.612,0.551-2.612
		C20.6,8.823,20.846,9.993,20.846,11.435z"/>
	<path fill="#FFFFFF" d="M54.027,9.467c0.002-1.754,0.141-3.486,0.66-5.167c0.272-0.879,0.648-1.7,1.311-2.367
		c1.309-1.318,2.987-1.232,4.157,0.219c0.741,0.921,1.136,2.005,1.39,3.139c0.581,2.615,0.52,5.262,0.318,7.914
		c-0.165,2.186-0.509,4.346-1.279,6.406c-0.321,0.846-0.724,1.677-1.209,2.438c-0.628,0.986-1.098,0.986-1.903,0.125
		c-0.829-0.887-1.38-1.944-1.826-3.059c-0.831-2.088-1.236-4.273-1.434-6.498C54.116,11.568,54.087,10.516,54.027,9.467z"/>
	<path fill="#FFFFFF" d="M37.054,59.939c-1.588-0.056-3.1-0.387-4.52-1.088c-2.999-1.479-4.399-4.075-3.884-7.367
		c0.351-2.218,1.238-4.197,3.057-5.635c2.229-1.761,5.729-1.704,7.835,0.098c1.886,1.616,2,4.59,0.223,6.122
		c-0.804,0.691-1.784,0.931-2.812,1.001c-1.786,0.124-3.45-0.347-5.06-1.064c-0.809-0.362-0.91-0.331-1.217,0.507
		c-0.452,1.223-0.252,2.37,0.573,3.361c0.808,0.973,1.917,1.225,3.129,1.094c1.037-0.115,1.8-0.65,2.381-1.508
		c0.431-0.635,0.875-1.274,1.398-1.829c0.729-0.776,1.689-1.035,2.729-0.836c1.478,0.284,2.267,1.65,1.881,3.277
		c-0.513,2.151-2.047,3.214-4.088,3.674C38.151,59.865,37.598,59.877,37.054,59.939z M35.807,49.461
		c-1.142,0.007-2.068-0.221-2.069-0.509c-0.002-0.288,0.922-0.525,2.065-0.533c1.14-0.006,2.068,0.223,2.068,0.51
		C37.873,49.217,36.95,49.457,35.807,49.461z"/>
	<path fill="#FFFFFF" d="M63.552,33.801c-0.062,2.364-0.94,4.335-2.876,5.747c-2.345,1.717-5.479,1.48-7.584-0.521
		c-2.915-2.772-3.003-7.504-0.194-10.384c2.999-3.077,7.974-2.169,9.898,1.806C63.308,31.506,63.588,32.615,63.552,33.801z
		 M57.774,33.681c0,1.442-0.247,2.612-0.553,2.612c-0.303,0-0.55-1.169-0.55-2.612c0-1.445,0.247-2.613,0.55-2.613
		C57.527,31.067,57.774,32.235,57.774,33.681z"/>
	<path fill="#FFFFFF" d="M32.74,13.035c0.856,0.012,2.149,0.37,3.302,1.159c0.687,0.47,1.203,1.082,1.437,1.901
		c0.287,1.002-0.015,1.993-0.779,2.563c-0.801,0.597-1.88,0.672-2.734,0.092c-0.583-0.396-1.091-0.901-1.63-1.358
		c-0.531-0.454-1.078-0.852-1.821-0.871c-1.506-0.039-2.769,0.819-3.123,2.28c-0.387,1.602-0.207,3.152,0.851,4.492
		c0.762,0.967,1.8,1.257,2.99,1.062c0.749-0.122,1.16-0.619,1.4-1.288c0.165-0.457,0.286-0.931,0.465-1.381
		c0.552-1.383,1.928-2.101,3.276-1.728c1.283,0.354,2.127,1.786,1.906,3.21c-0.206,1.328-0.914,2.319-2.031,3.028
		c-2.391,1.516-6.178,1.414-8.484-0.214c-3.044-2.149-3.725-6.733-1.468-9.88C27.709,14.133,29.995,12.939,32.74,13.035z"/>
</g>
</svg>
