<svg xmlns="http://www.w3.org/2000/svg" width="54.037" height="52.924" viewBox="0 0 54.037 52.924">
  <g id="그룹_55" data-name="그룹 55" transform="translate(-850.254 -486.211)">
    <path id="패스_170" data-name="패스 170" d="M898.82,539.135h-2.5V527.773h2.5Zm-16.23,0h-2.5V527.773h2.5Zm21.7-3.012h-2.5v-5.671c0-7.166-.878-12.239-12.238-12.239s-12.239,5.073-12.239,12.239v5.671h-2.5v-5.671c0-7.458,1.138-14.739,14.739-14.739s14.738,7.281,14.738,14.739Zm-32.024-1.965a24.015,24.015,0,1,1,25.658-28.088l-2.463.43a21.518,21.518,0,0,0-42.281-.547c3.845,2.425,12.132,4.025,21.088,4.025,2.436,0,4.849-.115,7.171-.342l.245,2.488c-2.4.235-4.9.354-7.416.354-8.837,0-16.9-1.482-21.456-3.861q-.059.8-.059,1.61a21.626,21.626,0,0,0,19.718,21.44Zm17.286-18.987a5.638,5.638,0,1,1,5.638-5.637A5.644,5.644,0,0,1,889.553,515.171Zm0-8.775a3.138,3.138,0,1,0,3.138,3.138A3.142,3.142,0,0,0,889.553,506.4Z" fill="#fff"/>
    <path id="패스_171" data-name="패스 171" d="M874.269,499.462c-7.994,0-14.777-1.626-17.282-4.142l1.772-1.764c1.684,1.693,7.553,3.406,15.51,3.406s13.827-1.713,15.511-3.406l1.772,1.764C889.047,497.836,882.264,499.462,874.269,499.462Z" fill="#fff"/>
    <path id="패스_172" data-name="패스 172" d="M871.894,533.764c-5.419-2.224-9.2-11.9-9.2-23.537,0-13.467,5.087-24.016,11.58-24.016,5.154,0,9.479,6.485,11.021,16.52l-2.471.38c-1.3-8.478-4.818-14.4-8.55-14.4-4.384,0-9.08,8.646-9.08,21.516,0,10.309,3.291,19.434,7.655,21.224Z" fill="#fff"/>
    <path id="패스_173" data-name="패스 173" d="M872.336,524.639c-10.055-.27-18.068-2.56-20.416-5.835l2.031-1.457c1.562,2.177,8.4,4.523,18.451,4.793Z" fill="#fff"/>
  </g>
</svg>
