<svg xmlns="http://www.w3.org/2000/svg" width="60.827" height="51.878" viewBox="0 0 60.827 51.878">
  <g id="그룹_54" data-name="그룹 54" transform="translate(-386.453 -487.358)">
    <path id="패스_160" data-name="패스 160" d="M435.817,517.067l1.085-1.106a1.68,1.68,0,0,0,.27-2.3l-17.2-16.861a1.2,1.2,0,0,0-.863-.327,2.067,2.067,0,0,0-1.431.643l-.776.793-1.7-1.662.776-.794A4.428,4.428,0,0,1,419.1,494.1a3.579,3.579,0,0,1,2.529,1l17.2,16.86a4.023,4.023,0,0,1-.236,5.661l-1.084,1.106Z" fill="#fff"/>
    <path id="패스_161" data-name="패스 161" d="M395.86,516.334a4.469,4.469,0,0,1-1.078-2.86,3.2,3.2,0,0,1,.937-2.289L411.2,496.091a3.2,3.2,0,0,1,2.265-.881,4.494,4.494,0,0,1,2.886,1.119l-1.7,1.678a2.043,2.043,0,0,0-1.175-.43.843.843,0,0,0-.609.213l-15.48,15.1a.871.871,0,0,0-.221.614,2.025,2.025,0,0,0,.407,1.157Z" fill="#fff"/>
    <path id="패스_162" data-name="패스 162" d="M420.173,539.236a4.541,4.541,0,0,1-3.09-1.319l-.384-.372,1.654-1.706.38.369a2.154,2.154,0,0,0,1.436.654.867.867,0,0,0,.618-.212l15.472-15.1a.876.876,0,0,0,.222-.616,2.192,2.192,0,0,0-.684-1.481l-12.016-12.212,1.693-1.666,12.014,12.208a4.54,4.54,0,0,1,1.369,3.173,3.21,3.21,0,0,1-.936,2.293l-15.478,15.1A3.22,3.22,0,0,1,420.173,539.236Z" fill="#fff"/>
    <path id="패스_163" data-name="패스 163" d="M397.045,525.767a3.736,3.736,0,0,1-2.622-1.138l-.965-.973a3.778,3.778,0,0,1-1.1-2.315,3,3,0,0,1,.846-2.41l6.717-6.662a2.917,2.917,0,0,1,2.083-.795,3.748,3.748,0,0,1,2.641,1.091l.966.976a3.749,3.749,0,0,1,1.113,2.62,2.943,2.943,0,0,1-.861,2.1l-6.716,6.661A2.946,2.946,0,0,1,397.045,525.767Zm-2.168-5.15a.64.64,0,0,0-.153.518,1.4,1.4,0,0,0,.422.848l.964.975a1.415,1.415,0,0,0,.961.426.542.542,0,0,0,.394-.137l6.837-6.78.015-.154a1.312,1.312,0,0,0-.4-1.1l-.963-.974a1.375,1.375,0,0,0-.937-.433h-.176Z" fill="#fff"/>
    <path id="패스_164" data-name="패스 164" d="M401.156,530.268a3.738,3.738,0,0,1-2.624-1.138l-.965-.972a3.367,3.367,0,0,1-.258-4.726l6.718-6.661a2.928,2.928,0,0,1,2.089-.8,3.731,3.731,0,0,1,2.635,1.092l.964.974a3.738,3.738,0,0,1,1.116,2.619,2.951,2.951,0,0,1-.859,2.109l-6.719,6.66A2.942,2.942,0,0,1,401.156,530.268Zm-2.17-5.152c-.293.293-.166.931.267,1.369l.966.973a1.4,1.4,0,0,0,.966.425h0a.533.533,0,0,0,.4-.143l6.827-6.771.015-.154a1.322,1.322,0,0,0-.4-1.1l-.967-.975a1.366,1.366,0,0,0-.933-.432h-.175Z" fill="#fff"/>
    <path id="패스_165" data-name="패스 165" d="M405.706,534.493a3.742,3.742,0,0,1-2.624-1.139l-.963-.972A3.734,3.734,0,0,1,401,529.77a2.957,2.957,0,0,1,.857-2.112L408.581,521a2.9,2.9,0,0,1,2.083-.8,3.723,3.723,0,0,1,2.638,1.1l.965.975a3.734,3.734,0,0,1,1.113,2.609,2.953,2.953,0,0,1-.854,2.11l-6.718,6.662A2.954,2.954,0,0,1,405.706,534.493Zm-2.169-5.15a.6.6,0,0,0-.158.435,1.38,1.38,0,0,0,.424.929l.967.974a1.4,1.4,0,0,0,.954.435h0a.553.553,0,0,0,.412-.154l6.826-6.77.015-.157a1.32,1.32,0,0,0-.4-1.093l-.965-.977a1.375,1.375,0,0,0-.936-.435H410.5Z" fill="#fff"/>
    <path id="패스_166" data-name="패스 166" d="M410.185,538.693a3.743,3.743,0,0,1-2.622-1.136l-.967-.976a3.783,3.783,0,0,1-1.1-2.317,3,3,0,0,1,.848-2.409l6.713-6.659a2.923,2.923,0,0,1,2.087-.8,3.732,3.732,0,0,1,2.638,1.095l.964.974a3.736,3.736,0,0,1,1.116,2.61,2.959,2.959,0,0,1-.858,2.114l-6.719,6.661A2.952,2.952,0,0,1,410.185,538.693Zm-2.168-5.151a.676.676,0,0,0-.154.517,1.4,1.4,0,0,0,.423.851l.964.973a1.411,1.411,0,0,0,.96.427h0a.547.547,0,0,0,.391-.135l6.732-6.671a.643.643,0,0,0,.154-.431,1.373,1.373,0,0,0-.425-.931l-.969-.978a1.374,1.374,0,0,0-.934-.433h-.176Z" fill="#fff"/>
    <path id="패스_167" data-name="패스 167" d="M414.858,514.817a4.367,4.367,0,0,1-4.2-2.655l-.07-.317-1.07-9.777,6.9-6.9,1.681,1.68L412,502.942l.937,8.527.05.083a2.053,2.053,0,0,0,1.872.89,4.164,4.164,0,0,0,.582-.044l.137-.021.06.009c.292-.019,1.536-.23,1.745-2.65l-.157-5.565,3.841-3.547,1.611,1.746-3.047,2.814.132,4.606c-.287,3.858-2.683,4.936-4.054,4.97a6.869,6.869,0,0,1-.852.057Z" fill="#fff"/>
    <rect id="사각형_51" data-name="사각형 51" width="9.814" height="2.376" transform="translate(419.288 494.298) rotate(-44.992)" fill="#fff"/>
    <rect id="사각형_52" data-name="사각형 52" width="10.475" height="2.376" transform="matrix(0.714, -0.7, 0.7, 0.714, 438.138, 513.596)" fill="#fff"/>
    <rect id="사각형_53" data-name="사각형 53" width="2.375" height="11.649" transform="matrix(0.707, -0.707, 0.707, 0.707, 405.823, 489.037)" fill="#fff"/>
    <path id="패스_168" data-name="패스 168" d="M386.453,507.957l1.663-1.7,8.776,8.632-1.663,1.7Z" fill="#fff"/>
    <rect id="사각형_54" data-name="사각형 54" width="2.376" height="7.271" transform="matrix(0.687, -0.726, 0.726, 0.687, 426.708, 521.185)" fill="#fff"/>
    <rect id="사각형_55" data-name="사각형 55" width="2.376" height="7.267" transform="translate(422.428 525.536) rotate(-46.565)" fill="#fff"/>
    <path id="패스_169" data-name="패스 169" d="M417.644,529.193l1.7-1.665,5.318,5.405-1.7,1.664Z" fill="#fff"/>
  </g>
</svg>
