<?xml version="1.0" encoding="utf-8"?>
<!-- Generator: Adobe Illustrator 15.0.0, SVG Export Plug-In . SVG Version: 6.00 Build 0)  -->
<!DOCTYPE svg PUBLIC "-//W3C//DTD SVG 1.1//EN" "http://www.w3.org/Graphics/SVG/1.1/DTD/svg11.dtd">
<svg version="1.1" id="Layer_1" xmlns="http://www.w3.org/2000/svg" xmlns:xlink="http://www.w3.org/1999/xlink" x="0px" y="0px"
	 width="566.93px" height="566.93px" viewBox="0 0 566.93 566.93" enable-background="new 0 0 566.93 566.93" xml:space="preserve">
<g>
	<path d="M404.428,552.671c0,1.702,0,7.235,14.898,7.235c14.9,0,14.9-5.533,14.9-7.235v-324.79v-1.279c0-1.702,0-7.235-14.9-7.235
		c-14.898,0-14.898,5.534-14.898,7.235v324.794V552.671z M8.549,339.833c0,1.701,0,7.236,14.898,7.236
		c14.897,0,14.897-5.535,14.897-7.236V13.766c0-1.704,0-7.237-14.897-7.237c-14.898,0-14.898,5.534-14.898,7.237V339.833z
		 M131.995,339.833c0,1.701,0,7.236,14.9,7.236c14.897,0,14.897-5.535,14.897-7.236V13.766c0-1.704,0-7.237-14.897-7.237
		c-14.9,0-14.9,5.534-14.9,7.237V339.833z M527.875,552.671c0,1.702,0,7.235,14.896,7.235c14.898,0,14.898-5.533,14.898-7.235
		v-324.79v-1.279c0-1.702,0-7.235-14.898-7.235c-14.896,0-14.896,5.534-14.896,7.235v324.794V552.671z M29.833,474.771
		c0-39.16,7.661-55.335,55.337-55.335s55.339,16.175,55.339,55.335c0,39.158-7.663,55.335-55.339,55.335
		S29.833,513.93,29.833,474.771 M268.212,13.766v1.277v536.354v1.274c0,1.702,0,7.235,14.897,7.235
		c14.899,0,14.899-5.533,14.899-7.235v-1.274V13.766c0-1.704,0-7.237-14.899-7.237C268.212,6.528,268.212,12.062,268.212,13.766
		 M395.914,91.663c0,55.339,21.285,85.137,85.134,85.137c63.852,0,85.135-29.797,85.135-85.137
		c0-55.338-21.283-85.135-85.135-85.135C417.199,6.528,395.914,36.325,395.914,91.663 M0.035,474.771
		c0,55.335,21.283,85.135,85.135,85.135s85.136-29.8,85.136-85.135s-21.284-85.133-85.136-85.133S0.035,419.437,0.035,474.771"/>
</g>
</svg>
